<?xml version="1.0" standalone="no"?>
<!DOCTYPE svg PUBLIC "-//W3C//DTD SVG 20010904//EN"
 "http://www.w3.org/TR/2001/REC-SVG-20010904/DTD/svg10.dtd">
<svg version="1.0" xmlns="http://www.w3.org/2000/svg"
 width="173.000000pt" height="130.000000pt" viewBox="0 0 173.000000 130.000000"
 preserveAspectRatio="xMidYMid meet">
<metadata>
Created by potrace 1.15, written by Peter Selinger 2001-2017
</metadata>
<g transform="translate(0.000000,130.000000) scale(0.100000,-0.100000)"
fill="#000000" stroke="none">
<path d="M794 1250 c-28 -4 -81 -17 -117 -29 -179 -60 -333 -228 -382 -418
-19 -73 -19 -232 0 -303 50 -191 201 -353 386 -416 217 -74 452 -20 614 140
128 127 179 251 179 431 0 80 -5 125 -18 165 -77 229 -250 386 -471 425 -87
16 -114 16 -191 5z m229 -36 c209 -54 372 -223 422 -438 45 -188 -16 -391
-159 -531 -259 -256 -678 -219 -887 78 -87 124 -121 277 -95 427 49 277 286
479 565 480 53 0 119 -7 154 -16z"/>
<path d="M740 1114 c-173 -47 -316 -213 -342 -397 -40 -286 182 -547 468 -548
142 -1 235 35 335 129 106 99 152 206 152 352 0 142 -45 251 -142 343 -70 67
-129 102 -206 121 -73 20 -192 19 -265 0z m352 -130 c53 -17 98 -57 99 -88 0
-20 1 -20 8 -2 7 17 10 16 30 -13 27 -37 53 -117 47 -140 -2 -9 -7 -28 -10
-43 -7 -30 -61 -68 -98 -68 -38 0 -78 36 -78 70 0 36 30 56 60 40 27 -14 27
-60 1 -60 -11 0 -22 6 -25 13 -3 6 -5 3 -3 -7 3 -28 33 -44 55 -30 24 17 20
74 -8 96 -29 23 -41 23 -74 -3 -58 -45 -7 -149 74 -149 26 0 25 -7 -2 -31 -32
-26 -41 -23 -61 20 -19 43 -69 74 -104 65 -29 -8 -50 -50 -37 -72 15 -23 58
-27 74 -7 17 20 5 32 -15 15 -19 -16 -39 -1 -33 26 9 47 88 15 88 -35 0 -53
-8 -61 -60 -61 -46 0 -48 -1 -54 -33 -12 -62 -88 -111 -181 -116 -22 -1 -49
-3 -60 -3 -64 -4 -125 4 -139 17 -8 8 -21 13 -29 10 -7 -3 -19 1 -26 9 -10 11
-8 17 8 28 12 8 18 18 15 21 -3 3 9 37 27 74 40 81 46 158 16 191 -18 20 -18
20 2 27 12 3 37 5 56 4 25 -3 39 2 49 16 12 16 18 18 33 9 21 -13 24 -45 4
-52 -10 -3 -12 0 -8 12 4 9 2 16 -4 16 -16 0 -23 -31 -8 -40 22 -14 49 8 49
40 0 33 -6 39 -49 42 -17 1 -31 4 -31 7 0 38 138 175 172 170 27 -3 83 3 64 8
-14 4 -16 7 -6 13 22 13 121 10 172 -6z"/>
<path d="M846 921 c2 -2 -3 -12 -11 -21 -9 -10 -18 -35 -20 -56 -2 -22 -2 -32
1 -23 3 11 12 15 25 12 19 -5 19 -6 -2 -24 l-21 -18 26 -26 c14 -14 32 -25 40
-25 8 0 22 -3 31 -6 9 -4 15 -3 14 2 -1 5 -1 20 0 34 l1 24 17 -24 c9 -14 17
-26 18 -28 1 -1 9 0 18 4 12 4 14 11 7 29 -7 19 -6 22 11 18 10 -3 16 -10 13
-17 -3 -6 2 -2 10 8 22 27 20 35 -9 48 l-26 12 27 11 27 11 -28 29 c-15 17
-23 23 -17 15 8 -12 5 -18 -13 -26 -22 -11 -22 -10 -15 17 7 25 6 29 -12 29
-11 0 -22 -8 -25 -20 -7 -26 -19 -26 -26 0 -4 14 -12 19 -35 17 -17 -1 -28 -4
-26 -6z"/>
</g>
</svg>
